/* XPM */
static char * coughingcatcoin32_xpm[] = {
"32 32 502 2",
"  	c None",
". 	c #000030",
"+ 	c #00002D",
"@ 	c #00002F",
"# 	c #000B30",
"$ 	c #000B31",
"% 	c #000130",
"& 	c #293137",
"* 	c #6D5D47",
"= 	c #947953",
"- 	c #A9895A",
"; 	c #B2915E",
"> 	c #2B3237",
", 	c #001831",
"' 	c #44413D",
") 	c #9C7F55",
"! 	c #CAA265",
"~ 	c #DFB26D",
"{ 	c #EABB72",
"] 	c #F0C074",
"^ 	c #F1C175",
"/ 	c #EABA72",
"( 	c #DEB26D",
"_ 	c #9C7F56",
": 	c #43403D",
"< 	c #001631",
"[ 	c #2C353B",
"} 	c #89714F",
"| 	c #CFA667",
"1 	c #EDBD73",
"2 	c #F3C276",
"3 	c #F2C176",
"4 	c #F1C075",
"5 	c #EFBF74",
"6 	c #EFBE74",
"7 	c #F2C175",
"8 	c #ECBC72",
"9 	c #D0A768",
"0 	c #897250",
"a 	c #002034",
"b 	c #343638",
"c 	c #4E473C",
"d 	c #000020",
"e 	c #977647",
"f 	c #ECBD73",
"g 	c #F6C578",
"h 	c #EEBE74",
"i 	c #EDBD74",
"j 	c #E9BA71",
"k 	c #AB8B5A",
"l 	c #263139",
"m 	c #2C3338",
"n 	c #313234",
"o 	c #A89C7A",
"p 	c #AF9D74",
"q 	c #A8834B",
"r 	c #DDAE66",
"s 	c #F0C076",
"t 	c #EEBF75",
"u 	c #EFBF75",
"v 	c #EEBE75",
"w 	c #B5925D",
"x 	c #253139",
"y 	c #48443D",
"z 	c #795D3A",
"A 	c #C4B486",
"B 	c #F1E0A5",
"C 	c #C5B787",
"D 	c #948461",
"E 	c #B38D52",
"F 	c #E0B167",
"G 	c #F0BF73",
"H 	c #F0BF72",
"I 	c #F1C074",
"J 	c #F1C177",
"K 	c #EFBF76",
"L 	c #002134",
"M 	c #00012F",
"N 	c #927A56",
"O 	c #E3B46A",
"P 	c #A28456",
"Q 	c #CEBF8D",
"R 	c #F8E09B",
"S 	c #E7D498",
"T 	c #BDB187",
"U 	c #9A8661",
"V 	c #AE8951",
"W 	c #B78F53",
"X 	c #B48E53",
"Y 	c #BB9152",
"Z 	c #C59854",
"` 	c #D2A35A",
" .	c #E3B266",
"..	c #EFBE72",
"+.	c #F3C277",
"@.	c #ECBC73",
"#.	c #E8B970",
"$.	c #866F4E",
"%.	c #000630",
"&.	c #4D4740",
"*.	c #CDA566",
"=.	c #FAC97B",
"-.	c #CC9F5B",
";.	c #A3936E",
">.	c #E3D096",
",.	c #E9D18B",
"'.	c #F0D996",
").	c #E9D8A0",
"!.	c #D0C6A0",
"~.	c #D0C8A9",
"{.	c #D4CDAD",
"].	c #CCC4A5",
"^.	c #BFB699",
"/.	c #AFA386",
"(.	c #A38B66",
"_.	c #B58D51",
":.	c #D4A45A",
"<.	c #EAB86C",
"[.	c #F3C377",
"}.	c #F2C277",
"|.	c #F6C579",
"1.	c #D6AD6C",
"2.	c #4E4A42",
"3.	c #001B32",
"4.	c #977C54",
"5.	c #EFBE73",
"6.	c #F2C174",
"7.	c #B08A51",
"8.	c #C3B588",
"9.	c #EAD595",
"0.	c #DFC988",
"a.	c #EFDCA3",
"b.	c #FFF2C3",
"c.	c #FFF8CE",
"d.	c #FFF9CE",
"e.	c #FFF9CF",
"f.	c #FFF6CD",
"g.	c #F0E7C3",
"h.	c #CCC5A7",
"i.	c #A89A7C",
"j.	c #A98959",
"k.	c #C49958",
"l.	c #D5A862",
"m.	c #DCAD66",
"n.	c #E0B169",
"o.	c #E5B56C",
"p.	c #E0B066",
"q.	c #917245",
"r.	c #001F33",
"s.	c #363839",
"t.	c #C59E63",
"u.	c #E8B971",
"v.	c #F6C67C",
"w.	c #D6A65B",
"x.	c #A5936E",
"y.	c #EEDEAB",
"z.	c #FCEAB3",
"A.	c #F5E7BB",
"B.	c #F7EAC3",
"C.	c #F7EBC4",
"D.	c #F8EBC4",
"E.	c #F9EDC4",
"F.	c #FFF3C9",
"G.	c #FDF2CB",
"H.	c #DDD4B1",
"I.	c #B7AB86",
"J.	c #AB996E",
"K.	c #AA966A",
"L.	c #A99265",
"M.	c #A58B5D",
"N.	c #B49A68",
"O.	c #A4906A",
"P.	c #2F3233",
"Q.	c #6B5B47",
"R.	c #E1B46F",
"S.	c #EABB73",
"T.	c #F6C57A",
"U.	c #BC8F49",
"V.	c #C2B696",
"W.	c #FCEFC4",
"X.	c #E9DDB8",
"Y.	c #FAEDC6",
"Z.	c #FDF0C6",
"`.	c #FBEFC7",
" +	c #FBEFC9",
".+	c #F6EAC4",
"++	c #F3E8C0",
"@+	c #FCEFC7",
"#+	c #FFF5C9",
"$+	c #F8E8B2",
"%+	c #E9D699",
"&+	c #E0CD91",
"*+	c #DAC88D",
"=+	c #E6D398",
"-+	c #DFD3A1",
";+	c #A29A7D",
">+	c #4F4133",
",+	c #363A3A",
"'+	c #001330",
")+	c #8E7551",
"!+	c #F1C279",
"~+	c #E7B568",
"{+	c #A2875D",
"]+	c #EBE2BF",
"^+	c #C3B99A",
"/+	c #4F4D4C",
"(+	c #CEC8B7",
"_+	c #FBF0CA",
":+	c #FCF0C8",
"<+	c #FAEEC6",
"[+	c #FBEEC2",
"}+	c #FFF5CB",
"|+	c #FFF7CE",
"1+	c #F9EDC5",
"2+	c #F6EAC2",
"3+	c #F1E1AE",
"4+	c #E6D08E",
"5+	c #EBD28A",
"6+	c #F6DF9B",
"7+	c #D9C995",
"8+	c #AC9A70",
"9+	c #BC9557",
"0+	c #947951",
"a+	c #000032",
"b+	c #A38458",
"c+	c #EBBB72",
"d+	c #D2A052",
"e+	c #B6A684",
"f+	c #F3E9C4",
"g+	c #696459",
"h+	c #000000",
"i+	c #A7ABB8",
"j+	c #F4EAD2",
"k+	c #FAEBBF",
"l+	c #FAEEC7",
"m+	c #FBEEC5",
"n+	c #F8ECC5",
"o+	c #F0E9D1",
"p+	c #CEC7B2",
"q+	c #D9CEA8",
"r+	c #FFF5CC",
"s+	c #F3E4B5",
"t+	c #EEDA9D",
"u+	c #E5D399",
"v+	c #ADA27B",
"w+	c #9A7F54",
"x+	c #CEA05A",
"y+	c #F1C073",
"z+	c #AB8B5C",
"A+	c #AC8B5B",
"B+	c #F3C176",
"C+	c #E9BA72",
"D+	c #F5C57A",
"E+	c #CA9B51",
"F+	c #B9AC8C",
"G+	c #FCF1CA",
"H+	c #DDD2AF",
"I+	c #A49B80",
"J+	c #D4CEB7",
"K+	c #EEE2B2",
"L+	c #F7EDBE",
"M+	c #FDF4CC",
"N+	c #F6E6B6",
"O+	c #F2E6C4",
"P+	c #E1E3E5",
"Q+	c #565962",
"R+	c #1F1700",
"S+	c #E0D5B3",
"T+	c #FFF3CA",
"U+	c #FAEBC0",
"V+	c #EBDCAD",
"W+	c #9C8C68",
"X+	c #B99053",
"Y+	c #E7B66C",
"Z+	c #F5C579",
"`+	c #F2C276",
" @	c #B18F5D",
".@	c #001032",
"+@	c #FAC97D",
"@@	c #CF9F54",
"#@	c #BCAF8E",
"$@	c #FFF4CC",
"%@	c #FFF6CC",
"&@	c #F5E5B1",
"*@	c #ECD69E",
"=@	c #F2D3AC",
"-@	c #FDDCBF",
";@	c #F0D2B8",
">@	c #F2E5B2",
",@	c #F2E0AF",
"'@	c #D3CFC3",
")@	c #18273F",
"!@	c #C4BC9E",
"~@	c #B8AE91",
"{@	c #B98C47",
"]@	c #F4C275",
"^@	c #B3915E",
"/@	c #000A31",
"(@	c #001832",
"_@	c #A48558",
":@	c #DBAE6A",
"<@	c #C2944D",
"[@	c #A6987B",
"}@	c #EDE4BF",
"|@	c #FCEEC6",
"1@	c #F9EEBF",
"2@	c #DBBCA1",
"3@	c #F3ABA9",
"4@	c #C98E8B",
"5@	c #C8A897",
"6@	c #FDF0C4",
"7@	c #EEDAA0",
"8@	c #E8D6A0",
"9@	c #D8CDAB",
"0@	c #D9CFAD",
"a@	c #F4E9C1",
"b@	c #DCAC60",
"c@	c #F2C278",
"d@	c #EBBC73",
"e@	c #001030",
"f@	c #8F7652",
"g@	c #DAAD68",
"h@	c #C39B5E",
"i@	c #B38848",
"j@	c #8E7B5C",
"k@	c #C9C1A3",
"l@	c #F4E7C1",
"m@	c #FDF3CA",
"n@	c #E8CCB2",
"o@	c #F2B3AA",
"p@	c #D69593",
"q@	c #DEC8AC",
"r@	c #F4E4B6",
"s@	c #F5E4B2",
"t@	c #FFF2C8",
"u@	c #FFF5CD",
"v@	c #FCF0C7",
"w@	c #F9EFC8",
"x@	c #A49170",
"y@	c #E1B165",
"z@	c #F0BF75",
"A@	c #6A5B47",
"B@	c #E3B66F",
"C@	c #E9BA70",
"D@	c #D9AE6A",
"E@	c #E1B36A",
"F@	c #99743E",
"G@	c #B6AF94",
"H@	c #F0E5BF",
"I@	c #FAEEC5",
"J@	c #FFF4CB",
"K@	c #FFF1C9",
"L@	c #F8DEBE",
"M@	c #F5E6C1",
"N@	c #FDF2C9",
"O@	c #EEE5C1",
"P@	c #A3885F",
"Q@	c #E9B86B",
"R@	c #C39D62",
"S@	c #F6C577",
"T@	c #E3B56E",
"U@	c #D3A968",
"V@	c #C99C57",
"W@	c #806A4B",
"X@	c #DFD7B6",
"Y@	c #FFFAD0",
"Z@	c #E3D8B4",
"`@	c #E9E1BA",
" #	c #F8ECC4",
".#	c #EBE0BB",
"+#	c #EDE2BC",
"@#	c #FDF1C8",
"##	c #B48C4F",
"$#	c #CAA266",
"%#	c #001A33",
"&#	c #987C54",
"*#	c #F0BF74",
"=#	c #E3B66E",
"-#	c #D2A663",
";#	c #D6AC69",
">#	c #C69952",
",#	c #978668",
"'#	c #F8EFC8",
")#	c #C3B89A",
"!#	c #48353B",
"~#	c #D5CEAB",
"{#	c #FFF4CA",
"]#	c #F4E8C1",
"^#	c #CFC6A6",
"/#	c #DCD2AF",
"(#	c #E5DAB6",
"_#	c #E3D8B5",
":#	c #FCEFC5",
"<#	c #FEF3CC",
"[#	c #9E9073",
"}#	c #D8A85D",
"|#	c #4B463F",
"1#	c #D1A768",
"2#	c #F4C276",
"3#	c #D5A966",
"4#	c #DEB16B",
"5#	c #C7954A",
"6#	c #9D9674",
"7#	c #DEB8A4",
"8#	c #DE7689",
"9#	c #8D4F5A",
"0#	c #E8D6B5",
"a#	c #FFFACF",
"b#	c #E1D5B2",
"c#	c #F5E9C2",
"d#	c #F2E6BF",
"e#	c #EEE4BF",
"f#	c #B1AB91",
"g#	c #B78E51",
"h#	c #001B33",
"i#	c #8C7350",
"j#	c #F0C075",
"k#	c #EEBE73",
"l#	c #F9C77A",
"m#	c #947438",
"n#	c #C96982",
"o#	c #FE98A3",
"p#	c #D07686",
"q#	c #CBAD9C",
"r#	c #F3ECC6",
"s#	c #DED4B3",
"t#	c #D7CFAE",
"u#	c #E7DEBB",
"v#	c #D6CEAD",
"w#	c #B1A78B",
"x#	c #8F6B33",
"y#	c #E6B66C",
"z#	c #8A7250",
"A#	c #001932",
"B#	c #192A36",
"C#	c #AA8959",
"D#	c #F2C075",
"E#	c #B9955A",
"F#	c #995D67",
"G#	c #9A5868",
"H#	c #956D65",
"I#	c #A89167",
"J#	c #AE946A",
"K#	c #A48F6B",
"L#	c #8F7E61",
"M#	c #AF966E",
"N#	c #92744A",
"O#	c #B38744",
"P#	c #E7B870",
"Q#	c #EBBC74",
"R#	c #AB8A5A",
"S#	c #022435",
"T#	c #36393C",
"U#	c #B3905C",
"V#	c #ECBD74",
"W#	c #E5B66E",
"X#	c #BE9A55",
"Y#	c #AE8E4F",
"Z#	c #C7A05B",
"`#	c #E4B365",
" $	c #E9B667",
".$	c #D2A258",
"+$	c #A27A3D",
"@$	c #DAA95C",
"#$	c #E7B76B",
"$$	c #E2B56F",
"%$	c #B4925D",
"&$	c #2E353B",
"*$	c #363638",
"=$	c #282F36",
"-$	c #373A3C",
";$	c #F4C277",
">$	c #F4C176",
",$	c #F5C57B",
"'$	c #EABC75",
")$	c #CFA666",
"!$	c #EBBD76",
"~$	c #F1C278",
"{$	c #E8B972",
"]$	c #31363B",
"^$	c #273035",
"/$	c #1C2B36",
"($	c #8B7350",
"_$	c #EBBC72",
":$	c #F3C275",
"<$	c #D0A767",
"[$	c #8B7250",
"}$	c #112835",
"|$	c #001C33",
"1$	c #4E4840",
"2$	c #E1B46E",
"3$	c #F4C376",
"4$	c #C59D63",
"5$	c #001933",
"6$	c #001A32",
"7$	c #6B5C47",
"8$	c #A38558",
"9$	c #AC8C5B",
"0$	c #A28457",
"a$	c #001D33",
"b$	c #001532",
"c$	c #001C32",
"                                                                ",
"                        . + @ # $ @ + .                         ",
"                    % & * = - ; ; - = * > @                     ",
"                , ' ) ! ~ { ] ^ ^ ] / ( ! _ : <                 ",
"              [ } | 1 2 3 4 5 6 6 5 4 3 7 8 9 0 a b             ",
"          c d e f g h i 1 1 1 i i i i i h 5 7 j k l m           ",
"          n o p q r ^ s t t u t v h i 1 h i i u 6 w x b         ",
"        y z A B C D E F G G H I 7 3 J K i 1 i i h 6 k L         ",
"      M N O P Q R S T U V W X Y Z `  ...+.J v i @.h #.$.%.      ",
"      &.*.=.-.;.>.,.'.).!.~.{.].^./.(._.:.<.7 [.+.}.|.1.2.      ",
"    3.4.5.v 6.7.8.9.0.a.b.c.c.d.e.f.g.h.i.j.k.l.m.n.o.p.q.r.    ",
"    s.t.2 u.v.w.x.y.z.A.B.C.C.C.D.E.F.e.G.H.I.J.K.L.M.N.O.P.    ",
"    Q.R.4 S.T.U.V.W.X.Y.Z.`.`.`.`. +.+++@+#+$+%+&+*+=+-+;+>+,+  ",
"  '+)+6 1 !+~+{+]+^+/+(+_+:+<+`.@+[+}+|+1+2+3+4+5+6+7+8+9+0+a+  ",
"  3.b+7 c+v.d+e+f+g+h+i+j+k+l+m+n+o+p+q+r+@+s+t+u+v+w+x+y+z++   ",
"  L A+B+C+D+E+F+G+H+I+J+K+L+M+N+O+P+Q+R+S+T+U+V+W+X+Y+Z+`+ @.@  ",
"  L A+2 i +@@@#@$@%@&@*@=@-@;@>@,@'@)@h+!@T+%@~@{@]@J i I ^@/@  ",
"  (@_@I :@R.<@[@}@|@1@2@3@4@5@6@7@8@9@0@a@@+$@[@b@c@d@6 ] - @   ",
"  e@f@6 g@h@i@j@k@l@m@n@o@p@q@%@r@s@t@u@v@@+w@x@y@s 1 z@d@= +   ",
"    A@B@C@D@E@F@G@H@I@J@K@L@M@N@@+:+:+`.n+F.O@P@Q@s 1 `+( * .   ",
"    s.R@S@T@U@V@W@X@Y@Z@`@d.:+<+ #.#+#@#C.e.h.##G v i 2 $#&     ",
"    %#&#*#=#-#;#>#,#'#)#!#~#{#]#^#/#(#_#:#<#[#}#}.i 6 h _ @     ",
"      |#1#2#3#4#+@5#6#7#8#9#0#a#b#Z@c#d#e#f#g#..u f `+9 '       ",
"      h#i#j j#k#S.l#m#n#o#p#q#r#s#t#u#v#w#x#y#J @.u C+z#A#      ",
"        B#C#D#6 C+7 E#F#G#H#I#J#K#L#M#N#O#P#Q#@.5 ] R#S#        ",
"          T#U#4 z@V#W#X#Y#Z#`# $.$+$@$#$$$s @.z@] %$&$*$        ",
"          =$-$j.{ 7 j#;$>$;$!+,$'$)$!$~${$@.3 { j.]$^$          ",
"              /$($9 6 ^ j#i _$c+{ _$1 *#:$*#<$[$}$              ",
"                |$1$&#t.2$k#7 3$2 :$6 2$4$4.&.5$                ",
"                    6$s.7$)+8$9$9$0$)+Q.s.a$                    ",
"                          b$6$L L c$b$                          ",
"                                                                "};
