/* XPM */
static char * coughingcatcoin16_xpm[] = {
"16 16 165 2",
"  	c None",
". 	c #0D2A37",
"+ 	c #8B724E",
"@ 	c #BE9961",
"# 	c #D2A869",
"$ 	c #8D744F",
"% 	c #001C32",
"& 	c #564738",
"* 	c #D3A766",
"= 	c #F7C679",
"- 	c #F4C378",
"; 	c #F4C377",
"> 	c #F3C277",
", 	c #F4C277",
"' 	c #D7AD6C",
") 	c #655642",
"! 	c #564D40",
"~ 	c #C5B385",
"{ 	c #D2B379",
"] 	c #D8AA64",
"^ 	c #EAB86A",
"/ 	c #EAB769",
"( 	c #EDBB6C",
"_ 	c #F1BF72",
": 	c #F0C075",
"< 	c #F7C578",
"[ 	c #E9BB73",
"} 	c #655743",
"| 	c #3B3B3A",
"1 	c #CEA465",
"2 	c #D6B87D",
"3 	c #DCCD93",
"4 	c #CEB982",
"5 	c #C8B287",
"6 	c #CEB78C",
"7 	c #CAAF80",
"8 	c #CFA669",
"9 	c #E1B065",
"0 	c #ECBA70",
"a 	c #F8C477",
"b 	c #DAAD6A",
"c 	c #1E2832",
"d 	c #89724F",
"e 	c #F7C577",
"f 	c #D7A966",
"g 	c #D1BE8A",
"h 	c #FFEEB5",
"i 	c #FAEEC6",
"j 	c #FCF2CC",
"k 	c #F9EFC8",
"l 	c #E9E0BC",
"m 	c #D0BF99",
"n 	c #C8A871",
"o 	c #CFAB6B",
"p 	c #D7B374",
"q 	c #77684F",
"r 	c #BE9A63",
"s 	c #F8C574",
"t 	c #D9B172",
"u 	c #C1B797",
"v 	c #D1C9AF",
"w 	c #F9EEC8",
"x 	c #FCF0C6",
"y 	c #FCEFC7",
"z 	c #FFF9CF",
"A 	c #FFF6CE",
"B 	c #E8D9A2",
"C 	c #D9C98D",
"D 	c #C8BA8A",
"E 	c #99835F",
"F 	c #D4AB6C",
"G 	c #F7C270",
"H 	c #D8BA88",
"I 	c #C4BFA2",
"J 	c #9D9786",
"K 	c #F3E9C5",
"L 	c #FFF3C5",
"M 	c #E4DCC5",
"N 	c #A29D8D",
"O 	c #EEE1BA",
"P 	c #F5E5B3",
"Q 	c #CAB179",
"R 	c #DBAF6B",
"S 	c #D1A665",
"T 	c #ECB869",
"U 	c #C3A578",
"V 	c #F3ECC4",
"W 	c #F8E0B4",
"X 	c #E0AF9E",
"Y 	c #F0DAB3",
"Z 	c #E4DAB3",
"` 	c #948D7B",
" .	c #EFE4BE",
"..	c #E0D4B0",
"+.	c #CFA059",
"@.	c #FAC778",
"#.	c #D2AA6B",
"$.	c #BE9A64",
"%.	c #E6B66A",
"&.	c #AB8855",
"*.	c #D3CEAC",
"=.	c #FFF0CA",
"-.	c #EBC8B1",
";.	c #F0DEBB",
">.	c #F9EDBC",
",.	c #FEF0C5",
"'.	c #FFFAD1",
").	c #D1C19C",
"!.	c #E6B466",
"~.	c #F5C479",
"{.	c #BD9860",
"].	c #8B724F",
"^.	c #F0C076",
"/.	c #C89A54",
"(.	c #C5AE85",
"_.	c #DFD6B3",
":.	c #E1D5B0",
"<.	c #FDF1C8",
"[.	c #EEE3BF",
"}.	c #F6E9C2",
"|.	c #F6EEC9",
"1.	c #C9AD7F",
"2.	c #EBB96C",
"3.	c #F2C277",
"4.	c #8E744F",
"5.	c #2A3137",
"6.	c #FAC677",
"7.	c #DAB369",
"8.	c #B88275",
"9.	c #C17286",
"0.	c #D9CAAC",
"a.	c #DBD4B1",
"b.	c #D8CFB0",
"c.	c #BEAF8D",
"d.	c #D8AB65",
"e.	c #FDC97A",
"f.	c #D6AC6C",
"g.	c #002032",
"h.	c #655541",
"i.	c #EBBC75",
"j.	c #FECB79",
"k.	c #C99663",
"l.	c #B88265",
"m.	c #CFA76F",
"n.	c #BA9D6C",
"o.	c #BF9C68",
"p.	c #D9AA63",
"q.	c #FDC979",
"r.	c #E8BA73",
"s.	c #655643",
"t.	c #655641",
"u.	c #D7AD6E",
"v.	c #F2C376",
"w.	c #F6C775",
"x.	c #F9C675",
"y.	c #EEBA6D",
"z.	c #F4C071",
"A.	c #675742",
"B.	c #202C35",
"C.	c #C09A63",
"D.	c #D3AA6C",
"E.	c #D5AC6D",
"F.	c #C09B65",
"G.	c #89714E",
"H.	c #1A2A35",
"                                ",
"        . + @ # # @ $ %         ",
"      & * = - ; > , > ' )       ",
"    ! ~ { ] ^ / ( _ : < [ }     ",
"  | 1 2 3 4 5 6 7 8 9 0 a b c   ",
"  d e f g h i j k l m n o p q   ",
"  r s t u v w x y z A B C D E   ",
"  F G H I J K L M N O P Q R S   ",
"  F T U V W X Y Z `  ...+.@.#.  ",
"  $.%.&.*.=.-.;.>.,.'.).!.~.{.  ",
"  ].^./.(._.:.<.[.}.|.1.2.3.4.  ",
"  5.F 6.7.8.9.0.a.b.c.d.e.f.g.  ",
"    h.i.j.k.l.m.n.o.p.q.r.s.    ",
"      t.u.v.w.x.y.z.< u.A.      ",
"        B.+ C.D.E.F.G.H.        ",
"                                "};
